<svg xmlns="http://www.w3.org/2000/svg" xmlns:xlink="http://www.w3.org/1999/xlink" width="500" zoomAndPan="magnify" viewBox="0 0 375 374.999991" height="500" preserveAspectRatio="xMidYMid meet" version="1.0"><defs><g/><clipPath id="6e29bb0e01"><path d="M 131.164062 106.101562 L 243.664062 106.101562 L 243.664062 205.851562 L 131.164062 205.851562 Z M 131.164062 106.101562 " clip-rule="nonzero"/></clipPath></defs><g fill="#000000" fill-opacity="1"><g transform="translate(118.796082, 244.553701)"><g><path d="M 8.28125 -10.078125 C 3.9375 -11.078125 1.765625 -12.9375 1.765625 -15.65625 C 1.765625 -17.664062 2.460938 -19.175781 3.859375 -20.1875 C 5.265625 -21.164062 6.910156 -21.65625 8.796875 -21.65625 C 12.953125 -21.65625 15.421875 -20.109375 16.203125 -17.015625 L 13.8125 -17.015625 C 13.394531 -18.859375 11.722656 -19.78125 8.796875 -19.78125 C 6.742188 -19.78125 5.304688 -19.171875 4.484375 -17.953125 C 4.171875 -17.492188 4.015625 -16.921875 4.015625 -16.234375 C 4.015625 -14.910156 4.726562 -13.894531 6.15625 -13.1875 C 6.820312 -12.832031 8.242188 -12.367188 10.421875 -11.796875 C 12.597656 -11.234375 14.175781 -10.609375 15.15625 -9.921875 C 16.519531 -8.953125 17.203125 -7.601562 17.203125 -5.875 C 17.203125 -3.71875 16.351562 -2.082031 14.65625 -0.96875 C 13.238281 -0.0507812 11.484375 0.40625 9.390625 0.40625 C 4.660156 0.40625 1.914062 -1.390625 1.15625 -4.984375 L 3.765625 -4.984375 C 4.160156 -2.722656 6.035156 -1.59375 9.390625 -1.59375 C 11.773438 -1.59375 13.4375 -2.253906 14.375 -3.578125 C 14.75 -4.097656 14.9375 -4.8125 14.9375 -5.71875 C 14.9375 -6.59375 14.59375 -7.3125 13.90625 -7.875 C 12.925781 -8.675781 11.050781 -9.410156 8.28125 -10.078125 Z M 8.28125 -10.078125 "/></g></g></g><g fill="#000000" fill-opacity="1"><g transform="translate(141.212127, 244.553701)"><g><path d="M 5.8125 -7.84375 L 13.5625 -7.84375 L 9.703125 -17.671875 Z M 19.046875 0 L 16.671875 0 L 14.375 -5.8125 L 4.984375 -5.8125 L 2.703125 0 L 0.3125 0 L 9.703125 -22.828125 Z M 19.046875 0 "/></g></g></g><g fill="#000000" fill-opacity="1"><g transform="translate(164.97814, 244.553701)"><g><path d="M 4.546875 -10.578125 L 9.515625 -10.578125 C 10.742188 -10.578125 11.757812 -10.992188 12.5625 -11.828125 C 13.375 -12.671875 13.78125 -13.71875 13.78125 -14.96875 C 13.78125 -16.226562 13.394531 -17.253906 12.625 -18.046875 C 11.84375 -18.847656 10.804688 -19.25 9.515625 -19.25 L 4.546875 -19.25 Z M 15.984375 -14.90625 C 15.984375 -13.039062 15.320312 -11.492188 14 -10.265625 C 12.695312 -9.046875 11.097656 -8.4375 9.203125 -8.4375 L 4.546875 -8.4375 L 4.546875 0 L 2.359375 0 L 2.359375 -21.34375 L 9.203125 -21.34375 C 11.078125 -21.34375 12.675781 -20.75 14 -19.5625 C 15.320312 -18.34375 15.984375 -16.789062 15.984375 -14.90625 Z M 15.984375 -14.90625 "/></g></g></g><g fill="#000000" fill-opacity="1"><g transform="translate(185.981434, 244.553701)"><g><path d="M 4.546875 0 L 2.359375 0 L 2.359375 -21.34375 L 4.546875 -21.34375 Z M 4.546875 0 "/></g></g></g><g fill="#000000" fill-opacity="1"><g transform="translate(197.283813, 244.553701)"><g><path d="M 15.03125 0 L 2.359375 0 L 2.359375 -21.34375 L 15.03125 -21.34375 L 15.03125 -19.3125 L 4.546875 -19.3125 L 4.546875 -11.703125 L 14.71875 -11.703125 L 14.71875 -9.640625 L 4.546875 -9.640625 L 4.546875 -2.046875 L 15.03125 -2.046875 Z M 15.03125 0 "/></g></g></g><g fill="#000000" fill-opacity="1"><g transform="translate(219.071967, 244.553701)"><g><path d="M 4.546875 -15.734375 L 4.546875 0 L 2.359375 0 L 2.359375 -22.703125 L 14.34375 -5.65625 L 14.34375 -21.34375 L 16.546875 -21.34375 L 16.546875 1.3125 Z M 4.546875 -15.734375 "/></g></g></g><g fill="#000000" fill-opacity="1"><g transform="translate(242.367066, 244.553701)"><g><path d="M 0.625 -19.375 L 0.625 -21.40625 L 13.1875 -21.40625 L 13.1875 -19.375 L 8 -19.375 L 8 -0.0625 L 5.8125 -0.0625 L 5.8125 -19.375 Z M 0.625 -19.375 "/></g></g></g><g fill="#0097b2" fill-opacity="1"><g transform="translate(113.075806, 264.435158)"><g><path d="M 3.875 -4.203125 C 2.8125 -4.503906 2.035156 -4.878906 1.546875 -5.328125 C 1.054688 -5.773438 0.8125 -6.328125 0.8125 -6.984375 C 0.8125 -7.734375 1.109375 -8.347656 1.703125 -8.828125 C 2.296875 -9.316406 3.066406 -9.5625 4.015625 -9.5625 C 4.671875 -9.5625 5.25 -9.4375 5.75 -9.1875 C 6.257812 -8.9375 6.65625 -8.585938 6.9375 -8.140625 C 7.21875 -7.703125 7.359375 -7.222656 7.359375 -6.703125 L 6.109375 -6.703125 C 6.109375 -7.273438 5.925781 -7.722656 5.5625 -8.046875 C 5.195312 -8.367188 4.679688 -8.53125 4.015625 -8.53125 C 3.410156 -8.53125 2.9375 -8.394531 2.59375 -8.125 C 2.25 -7.863281 2.078125 -7.492188 2.078125 -7.015625 C 2.078125 -6.628906 2.238281 -6.300781 2.5625 -6.03125 C 2.882812 -5.769531 3.4375 -5.523438 4.21875 -5.296875 C 5.007812 -5.078125 5.625 -4.832031 6.0625 -4.5625 C 6.507812 -4.300781 6.835938 -3.992188 7.046875 -3.640625 C 7.265625 -3.285156 7.375 -2.867188 7.375 -2.390625 C 7.375 -1.628906 7.070312 -1.019531 6.46875 -0.5625 C 5.875 -0.101562 5.082031 0.125 4.09375 0.125 C 3.4375 0.125 2.828125 0.00390625 2.265625 -0.234375 C 1.710938 -0.484375 1.28125 -0.820312 0.96875 -1.25 C 0.664062 -1.6875 0.515625 -2.179688 0.515625 -2.734375 L 1.765625 -2.734375 C 1.765625 -2.160156 1.972656 -1.707031 2.390625 -1.375 C 2.816406 -1.050781 3.382812 -0.890625 4.09375 -0.890625 C 4.75 -0.890625 5.25 -1.019531 5.59375 -1.28125 C 5.945312 -1.550781 6.125 -1.914062 6.125 -2.375 C 6.125 -2.84375 5.960938 -3.203125 5.640625 -3.453125 C 5.316406 -3.703125 4.726562 -3.953125 3.875 -4.203125 Z M 3.875 -4.203125 "/></g></g></g><g fill="#0097b2" fill-opacity="1"><g transform="translate(122.597003, 264.435158)"><g><path d="M 6.421875 -4.359375 L 2.34375 -4.359375 L 2.34375 -1.015625 L 7.09375 -1.015625 L 7.09375 0 L 1.09375 0 L 1.09375 -9.4375 L 7.015625 -9.4375 L 7.015625 -8.40625 L 2.34375 -8.40625 L 2.34375 -5.375 L 6.421875 -5.375 Z M 6.421875 -4.359375 "/></g></g></g><g fill="#0097b2" fill-opacity="1"><g transform="translate(131.788142, 264.435158)"><g><path d="M 8.03125 -3 C 7.914062 -2 7.546875 -1.226562 6.921875 -0.6875 C 6.304688 -0.144531 5.484375 0.125 4.453125 0.125 C 3.335938 0.125 2.441406 -0.269531 1.765625 -1.0625 C 1.097656 -1.863281 0.765625 -2.9375 0.765625 -4.28125 L 0.765625 -5.1875 C 0.765625 -6.0625 0.921875 -6.828125 1.234375 -7.484375 C 1.546875 -8.148438 1.988281 -8.660156 2.5625 -9.015625 C 3.144531 -9.378906 3.8125 -9.5625 4.5625 -9.5625 C 5.5625 -9.5625 6.363281 -9.28125 6.96875 -8.71875 C 7.582031 -8.164062 7.9375 -7.394531 8.03125 -6.40625 L 6.78125 -6.40625 C 6.675781 -7.15625 6.441406 -7.695312 6.078125 -8.03125 C 5.710938 -8.363281 5.207031 -8.53125 4.5625 -8.53125 C 3.769531 -8.53125 3.144531 -8.238281 2.6875 -7.65625 C 2.238281 -7.070312 2.015625 -6.238281 2.015625 -5.15625 L 2.015625 -4.234375 C 2.015625 -3.210938 2.226562 -2.398438 2.65625 -1.796875 C 3.082031 -1.191406 3.679688 -0.890625 4.453125 -0.890625 C 5.148438 -0.890625 5.679688 -1.046875 6.046875 -1.359375 C 6.410156 -1.671875 6.65625 -2.21875 6.78125 -3 Z M 8.03125 -3 "/></g></g></g><g fill="#0097b2" fill-opacity="1"><g transform="translate(142.072992, 264.435158)"><g><path d="M 7.734375 -9.4375 L 7.734375 -3.015625 C 7.734375 -2.128906 7.453125 -1.398438 6.890625 -0.828125 C 6.335938 -0.265625 5.585938 0.046875 4.640625 0.109375 L 4.3125 0.125 C 3.28125 0.125 2.457031 -0.148438 1.84375 -0.703125 C 1.226562 -1.265625 0.914062 -2.03125 0.90625 -3 L 0.90625 -9.4375 L 2.140625 -9.4375 L 2.140625 -3.046875 C 2.140625 -2.359375 2.328125 -1.828125 2.703125 -1.453125 C 3.078125 -1.078125 3.613281 -0.890625 4.3125 -0.890625 C 5.007812 -0.890625 5.546875 -1.078125 5.921875 -1.453125 C 6.296875 -1.828125 6.484375 -2.351562 6.484375 -3.03125 L 6.484375 -9.4375 Z M 7.734375 -9.4375 "/></g></g></g><g fill="#0097b2" fill-opacity="1"><g transform="translate(152.325479, 264.435158)"><g><path d="M 4.546875 -3.8125 L 2.34375 -3.8125 L 2.34375 0 L 1.09375 0 L 1.09375 -9.4375 L 4.203125 -9.4375 C 5.265625 -9.4375 6.082031 -9.191406 6.65625 -8.703125 C 7.226562 -8.222656 7.515625 -7.519531 7.515625 -6.59375 C 7.515625 -6.007812 7.351562 -5.5 7.03125 -5.0625 C 6.71875 -4.625 6.28125 -4.296875 5.71875 -4.078125 L 7.9375 -0.078125 L 7.9375 0 L 6.59375 0 Z M 2.34375 -4.828125 L 4.25 -4.828125 C 4.863281 -4.828125 5.351562 -4.988281 5.71875 -5.3125 C 6.082031 -5.632812 6.265625 -6.0625 6.265625 -6.59375 C 6.265625 -7.175781 6.09375 -7.625 5.75 -7.9375 C 5.40625 -8.25 4.90625 -8.40625 4.25 -8.40625 L 2.34375 -8.40625 Z M 2.34375 -4.828125 "/></g></g></g><g fill="#0097b2" fill-opacity="1"><g transform="translate(162.144371, 264.435158)"><g><path d="M 2.421875 0 L 1.1875 0 L 1.1875 -9.4375 L 2.421875 -9.4375 Z M 2.421875 0 "/></g></g></g><g fill="#0097b2" fill-opacity="1"><g transform="translate(167.407234, 264.435158)"><g><path d="M 7.609375 -8.40625 L 4.578125 -8.40625 L 4.578125 0 L 3.34375 0 L 3.34375 -8.40625 L 0.3125 -8.40625 L 0.3125 -9.4375 L 7.609375 -9.4375 Z M 7.609375 -8.40625 "/></g></g></g><g fill="#0097b2" fill-opacity="1"><g transform="translate(176.973728, 264.435158)"><g><path d="M 3.96875 -4.703125 L 6.4375 -9.4375 L 7.84375 -9.4375 L 4.59375 -3.515625 L 4.59375 0 L 3.34375 0 L 3.34375 -3.515625 L 0.09375 -9.4375 L 1.515625 -9.4375 Z M 3.96875 -4.703125 "/></g></g></g><g fill="#0097b2" fill-opacity="1"><g transform="translate(186.591994, 264.435158)"><g/></g></g><g fill="#0097b2" fill-opacity="1"><g transform="translate(191.531275, 264.435158)"><g><path d="M 2.421875 0 L 1.1875 0 L 1.1875 -9.4375 L 2.421875 -9.4375 Z M 2.421875 0 "/></g></g></g><g fill="#0097b2" fill-opacity="1"><g transform="translate(196.794138, 264.435158)"><g><path d="M 8.34375 0 L 7.09375 0 L 2.34375 -7.265625 L 2.34375 0 L 1.09375 0 L 1.09375 -9.4375 L 2.34375 -9.4375 L 7.109375 -2.125 L 7.109375 -9.4375 L 8.34375 -9.4375 Z M 8.34375 0 "/></g></g></g><g fill="#0097b2" fill-opacity="1"><g transform="translate(207.90088, 264.435158)"><g><path d="M 3.875 -4.203125 C 2.8125 -4.503906 2.035156 -4.878906 1.546875 -5.328125 C 1.054688 -5.773438 0.8125 -6.328125 0.8125 -6.984375 C 0.8125 -7.734375 1.109375 -8.347656 1.703125 -8.828125 C 2.296875 -9.316406 3.066406 -9.5625 4.015625 -9.5625 C 4.671875 -9.5625 5.25 -9.4375 5.75 -9.1875 C 6.257812 -8.9375 6.65625 -8.585938 6.9375 -8.140625 C 7.21875 -7.703125 7.359375 -7.222656 7.359375 -6.703125 L 6.109375 -6.703125 C 6.109375 -7.273438 5.925781 -7.722656 5.5625 -8.046875 C 5.195312 -8.367188 4.679688 -8.53125 4.015625 -8.53125 C 3.410156 -8.53125 2.9375 -8.394531 2.59375 -8.125 C 2.25 -7.863281 2.078125 -7.492188 2.078125 -7.015625 C 2.078125 -6.628906 2.238281 -6.300781 2.5625 -6.03125 C 2.882812 -5.769531 3.4375 -5.523438 4.21875 -5.296875 C 5.007812 -5.078125 5.625 -4.832031 6.0625 -4.5625 C 6.507812 -4.300781 6.835938 -3.992188 7.046875 -3.640625 C 7.265625 -3.285156 7.375 -2.867188 7.375 -2.390625 C 7.375 -1.628906 7.070312 -1.019531 6.46875 -0.5625 C 5.875 -0.101562 5.082031 0.125 4.09375 0.125 C 3.4375 0.125 2.828125 0.00390625 2.265625 -0.234375 C 1.710938 -0.484375 1.28125 -0.820312 0.96875 -1.25 C 0.664062 -1.6875 0.515625 -2.179688 0.515625 -2.734375 L 1.765625 -2.734375 C 1.765625 -2.160156 1.972656 -1.707031 2.390625 -1.375 C 2.816406 -1.050781 3.382812 -0.890625 4.09375 -0.890625 C 4.75 -0.890625 5.25 -1.019531 5.59375 -1.28125 C 5.945312 -1.550781 6.125 -1.914062 6.125 -2.375 C 6.125 -2.84375 5.960938 -3.203125 5.640625 -3.453125 C 5.316406 -3.703125 4.726562 -3.953125 3.875 -4.203125 Z M 3.875 -4.203125 "/></g></g></g><g fill="#0097b2" fill-opacity="1"><g transform="translate(217.422078, 264.435158)"><g><path d="M 2.421875 0 L 1.1875 0 L 1.1875 -9.4375 L 2.421875 -9.4375 Z M 2.421875 0 "/></g></g></g><g fill="#0097b2" fill-opacity="1"><g transform="translate(222.684941, 264.435158)"><g><path d="M 8.0625 -1.234375 C 7.738281 -0.773438 7.289062 -0.429688 6.71875 -0.203125 C 6.144531 0.015625 5.476562 0.125 4.71875 0.125 C 3.945312 0.125 3.265625 -0.0507812 2.671875 -0.40625 C 2.078125 -0.769531 1.613281 -1.285156 1.28125 -1.953125 C 0.957031 -2.617188 0.796875 -3.390625 0.796875 -4.265625 L 0.796875 -5.078125 C 0.796875 -6.503906 1.125 -7.609375 1.78125 -8.390625 C 2.445312 -9.171875 3.378906 -9.5625 4.578125 -9.5625 C 5.566406 -9.5625 6.359375 -9.304688 6.953125 -8.796875 C 7.554688 -8.296875 7.925781 -7.585938 8.0625 -6.671875 L 6.8125 -6.671875 C 6.582031 -7.910156 5.84375 -8.53125 4.59375 -8.53125 C 3.75 -8.53125 3.113281 -8.238281 2.6875 -7.65625 C 2.257812 -7.070312 2.046875 -6.222656 2.046875 -5.109375 L 2.046875 -4.34375 C 2.046875 -3.289062 2.285156 -2.453125 2.765625 -1.828125 C 3.242188 -1.203125 3.898438 -0.890625 4.734375 -0.890625 C 5.191406 -0.890625 5.597656 -0.941406 5.953125 -1.046875 C 6.304688 -1.148438 6.597656 -1.320312 6.828125 -1.5625 L 6.828125 -3.6875 L 4.640625 -3.6875 L 4.640625 -4.703125 L 8.0625 -4.703125 Z M 8.0625 -1.234375 "/></g></g></g><g fill="#0097b2" fill-opacity="1"><g transform="translate(233.371032, 264.435158)"><g><path d="M 8.34375 0 L 7.09375 0 L 7.09375 -4.359375 L 2.34375 -4.359375 L 2.34375 0 L 1.09375 0 L 1.09375 -9.4375 L 2.34375 -9.4375 L 2.34375 -5.375 L 7.09375 -5.375 L 7.09375 -9.4375 L 8.34375 -9.4375 Z M 8.34375 0 "/></g></g></g><g fill="#0097b2" fill-opacity="1"><g transform="translate(244.477774, 264.435158)"><g><path d="M 7.609375 -8.40625 L 4.578125 -8.40625 L 4.578125 0 L 3.34375 0 L 3.34375 -8.40625 L 0.3125 -8.40625 L 0.3125 -9.4375 L 7.609375 -9.4375 Z M 7.609375 -8.40625 "/></g></g></g><g fill="#0097b2" fill-opacity="1"><g transform="translate(254.044268, 264.435158)"><g><path d="M 3.875 -4.203125 C 2.8125 -4.503906 2.035156 -4.878906 1.546875 -5.328125 C 1.054688 -5.773438 0.8125 -6.328125 0.8125 -6.984375 C 0.8125 -7.734375 1.109375 -8.347656 1.703125 -8.828125 C 2.296875 -9.316406 3.066406 -9.5625 4.015625 -9.5625 C 4.671875 -9.5625 5.25 -9.4375 5.75 -9.1875 C 6.257812 -8.9375 6.65625 -8.585938 6.9375 -8.140625 C 7.21875 -7.703125 7.359375 -7.222656 7.359375 -6.703125 L 6.109375 -6.703125 C 6.109375 -7.273438 5.925781 -7.722656 5.5625 -8.046875 C 5.195312 -8.367188 4.679688 -8.53125 4.015625 -8.53125 C 3.410156 -8.53125 2.9375 -8.394531 2.59375 -8.125 C 2.25 -7.863281 2.078125 -7.492188 2.078125 -7.015625 C 2.078125 -6.628906 2.238281 -6.300781 2.5625 -6.03125 C 2.882812 -5.769531 3.4375 -5.523438 4.21875 -5.296875 C 5.007812 -5.078125 5.625 -4.832031 6.0625 -4.5625 C 6.507812 -4.300781 6.835938 -3.992188 7.046875 -3.640625 C 7.265625 -3.285156 7.375 -2.867188 7.375 -2.390625 C 7.375 -1.628906 7.070312 -1.019531 6.46875 -0.5625 C 5.875 -0.101562 5.082031 0.125 4.09375 0.125 C 3.4375 0.125 2.828125 0.00390625 2.265625 -0.234375 C 1.710938 -0.484375 1.28125 -0.820312 0.96875 -1.25 C 0.664062 -1.6875 0.515625 -2.179688 0.515625 -2.734375 L 1.765625 -2.734375 C 1.765625 -2.160156 1.972656 -1.707031 2.390625 -1.375 C 2.816406 -1.050781 3.382812 -0.890625 4.09375 -0.890625 C 4.75 -0.890625 5.25 -1.019531 5.59375 -1.28125 C 5.945312 -1.550781 6.125 -1.914062 6.125 -2.375 C 6.125 -2.84375 5.960938 -3.203125 5.640625 -3.453125 C 5.316406 -3.703125 4.726562 -3.953125 3.875 -4.203125 Z M 3.875 -4.203125 "/></g></g></g><g clip-path="url(#6e29bb0e01)"><path fill="#0097b2" d="M 177.339844 148.359375 L 182.417969 151.824219 C 182.675781 151.347656 183.183594 151.027344 183.761719 151.027344 L 191.503906 151.027344 C 192.34375 151.027344 193.035156 151.71875 193.035156 152.558594 L 193.035156 160.300781 C 193.035156 161.144531 192.34375 161.832031 191.503906 161.832031 L 187.75 161.832031 L 184.492188 168.257812 L 185.144531 168.257812 C 186.230469 168.257812 187.113281 169.144531 187.113281 170.230469 L 187.113281 174.53125 L 198.046875 174.710938 L 198.046875 174.441406 C 198.046875 173.800781 198.570312 173.273438 199.214844 173.273438 L 205.113281 173.273438 C 205.753906 173.273438 206.28125 173.800781 206.28125 174.441406 L 206.28125 180.34375 C 206.28125 180.984375 205.753906 181.511719 205.113281 181.511719 L 199.214844 181.511719 C 198.570312 181.511719 198.046875 180.984375 198.046875 180.34375 L 198.046875 177.617188 L 187.113281 177.441406 L 187.113281 180.183594 C 187.113281 181.269531 186.230469 182.15625 185.144531 182.15625 L 175.191406 182.15625 C 174.105469 182.15625 173.21875 181.269531 173.21875 180.183594 L 173.21875 170.230469 C 173.21875 169.144531 174.105469 168.261719 175.191406 168.261719 L 181.230469 168.261719 L 184.488281 161.835938 L 183.761719 161.835938 C 182.917969 161.835938 182.230469 161.148438 182.230469 160.304688 L 182.230469 155.222656 L 177.046875 151.683594 C 176.628906 152.441406 175.824219 152.960938 174.898438 152.960938 L 162.550781 152.960938 C 161.207031 152.960938 160.109375 151.859375 160.109375 150.515625 L 160.109375 138.167969 C 160.109375 136.824219 161.207031 135.726562 162.550781 135.726562 L 174.898438 135.726562 C 176.246094 135.726562 177.34375 136.824219 177.34375 138.167969 L 177.34375 148.359375 Z M 150.265625 133.148438 L 143.511719 141.660156 L 143.511719 150.046875 C 143.511719 150.457031 143.371094 150.832031 143.132812 151.132812 L 147.992188 156.945312 L 156.5 156.945312 C 157.847656 156.945312 158.945312 158.042969 158.945312 159.390625 L 158.945312 171.734375 C 158.945312 173.082031 157.84375 174.183594 156.5 174.183594 L 144.15625 174.183594 C 142.808594 174.183594 141.710938 173.082031 141.710938 171.734375 L 141.710938 159.390625 C 141.710938 158.042969 142.8125 156.945312 144.15625 156.945312 L 144.195312 156.945312 L 139.890625 151.800781 L 132.910156 151.800781 C 131.949219 151.800781 131.164062 151.011719 131.164062 150.050781 L 131.164062 141.203125 C 131.164062 140.242188 131.949219 139.453125 132.910156 139.453125 L 141.546875 139.453125 L 146.609375 133.066406 C 145.570312 132.789062 144.796875 131.832031 144.796875 130.707031 L 144.796875 118.355469 C 144.796875 117.011719 145.894531 115.910156 147.238281 115.910156 L 159.585938 115.910156 C 160.933594 115.910156 162.03125 117.011719 162.03125 118.355469 L 162.03125 130.703125 C 162.03125 132.050781 160.929688 133.148438 159.585938 133.148438 Z M 210.9375 193.992188 L 218.507812 185.621094 L 218.507812 171.332031 C 218.507812 170.574219 218.808594 169.886719 219.300781 169.378906 L 215.3125 164.757812 C 215.179688 164.777344 215.039062 164.789062 214.898438 164.789062 L 202.550781 164.789062 C 201.203125 164.789062 200.105469 163.691406 200.105469 162.34375 L 200.105469 149.996094 C 200.105469 148.652344 201.207031 147.554688 202.550781 147.554688 L 214.898438 147.554688 C 216.246094 147.554688 217.34375 148.652344 217.34375 149.996094 L 217.34375 162.34375 C 217.34375 162.445312 217.335938 162.542969 217.324219 162.640625 L 222.398438 168.523438 L 235.5 168.523438 C 237.042969 168.523438 238.304688 169.789062 238.304688 171.332031 L 238.304688 185.519531 C 238.304688 187.0625 237.042969 188.324219 235.5 188.324219 L 221.308594 188.324219 C 220.914062 188.324219 220.53125 188.238281 220.1875 188.089844 L 213.222656 195.785156 L 213.222656 204.148438 C 213.222656 205.070312 212.46875 205.824219 211.546875 205.824219 L 203.066406 205.824219 C 202.144531 205.824219 201.390625 205.070312 201.390625 204.148438 L 201.390625 195.667969 C 201.390625 194.746094 202.148438 193.992188 203.066406 193.992188 Z M 234.347656 145.882812 L 229.742188 137 L 223.632812 137 C 222.648438 137 221.84375 136.199219 221.84375 135.214844 L 221.84375 126.1875 C 221.84375 125.207031 222.648438 124.402344 223.632812 124.402344 L 232.65625 124.402344 C 233.640625 124.402344 234.441406 125.207031 234.441406 126.1875 L 234.441406 135.214844 C 234.441406 136.082031 233.820312 136.808594 233 136.96875 L 237.625 145.882812 L 242.050781 145.882812 C 243.03125 145.882812 243.835938 146.683594 243.835938 147.667969 L 243.835938 156.695312 C 243.835938 157.679688 243.03125 158.480469 242.050781 158.480469 L 233.023438 158.480469 C 232.039062 158.480469 231.238281 157.679688 231.238281 156.695312 L 231.238281 147.667969 C 231.238281 146.683594 232.039062 145.882812 233.023438 145.882812 Z M 177.082031 106.136719 L 189.429688 106.136719 C 190.777344 106.136719 191.875 107.234375 191.875 108.578125 L 191.875 120.929688 C 191.875 122.273438 190.773438 123.371094 189.429688 123.371094 L 187.128906 123.371094 L 189.695312 129.679688 L 196.128906 129.679688 C 196.246094 129.679688 196.359375 129.6875 196.464844 129.710938 L 200.351562 126.429688 C 199.882812 125.984375 199.589844 125.355469 199.589844 124.65625 L 199.589844 112.3125 C 199.589844 110.964844 200.691406 109.867188 202.035156 109.867188 L 214.382812 109.867188 C 215.730469 109.867188 216.828125 110.964844 216.828125 112.3125 L 216.828125 124.65625 C 216.828125 126.003906 215.726562 127.101562 214.382812 127.101562 L 204.066406 127.101562 L 197.914062 132.296875 L 197.914062 140.492188 C 197.914062 141.472656 197.109375 142.277344 196.128906 142.277344 L 187.101562 142.277344 C 186.117188 142.277344 185.316406 141.472656 185.316406 140.492188 L 185.316406 131.464844 C 185.316406 130.660156 185.847656 129.980469 186.578125 129.753906 L 183.980469 123.371094 L 177.082031 123.371094 C 175.734375 123.371094 174.636719 122.273438 174.636719 120.929688 L 174.636719 108.578125 C 174.640625 107.234375 175.738281 106.136719 177.082031 106.136719 Z M 177.082031 106.136719 " fill-opacity="1" fill-rule="evenodd"/></g></svg>